<svg id="Capa_1" data-name="Capa 1" xmlns="http://www.w3.org/2000/svg" xmlns:xlink="http://www.w3.org/1999/xlink" viewBox="0 0 1334 750"><defs><style>.cls-1{fill:none;}.cls-2{fill:#773dbd;}.cls-3{clip-path:url(#clip-path);}.cls-4{fill:#ffe800;}</style><clipPath id="clip-path"><rect class="cls-1" x="1363" y="-340" width="750" height="1334"/></clipPath></defs><title>hu simbolo</title><path class="cls-2" d="M840.54,341.24V480.93q0,59.41-32.69,93t-93.26,33.55q-60.49,0-92.91-33.55t-32.45-93V432.57a36,36,0,0,1,.43-5.67q-.13-29.77-11.82-46.87Q566,362.74,536.3,362.73q-30.78,0-48.11,18.41t-17.36,46.48V573.71c0,9.52-3.07,17.5-9.32,23.89s-14.13,9.62-23.65,9.62-17.4-3.18-23.65-9.62-9.37-14.37-9.37-23.89V175.85q0-14.26,9.37-23.93t23.65-9.62q14.28,0,23.65,9.62c6.25,6.44,9.32,14.42,9.32,23.93V350a134.78,134.78,0,0,1,37.69-33.79q22.86-14.07,50.86-14,54.51,0,75.37,33.26t20.91,92.15V486.7c0,1.06,0,2.11-.14,3.17q1.72,26.89,14.56,40.86,14.79,16.23,44.51,16.2,30.28,0,45.09-16.2t14.86-49.8V341.24q0-14.28,9.37-23.89t23.65-9.66q14.28,0,23.65,9.66C837.41,323.74,840.54,331.72,840.54,341.24Z"/><circle class="cls-2" cx="896.08" cy="574.61" r="33.09"/><g class="cls-3"><path class="cls-4" d="M1553.72,719.23c-16.83,29.46-54.45,41-84.88,26a64.78,64.78,0,0,1-36-63.27,62.84,62.84,0,0,1,1-7.45c0-.18.08-.37.14-.58.29-1.19.57-2.37.85-3.54a2.22,2.22,0,0,1,.09-.37c.29-1.31.56-2.62.82-3.92a.11.11,0,0,1,0-.06,180.77,180.77,0,0,0,3.59-34.48q.39-47-21.57-84.64A154.14,154.14,0,0,0,1359.65,490a35.51,35.51,0,0,0-3.65-2.18c-26.6-14.4-54.29-20.83-83.31-19.41s-56.55,10.86-82.66,28.22c-4.48,3-8.81,6.14-13,9.53-3.37,2.69-6.63,5.5-9.83,8.46a64.81,64.81,0,0,1-75.47-.65c-26.28-19-34.21-55.23-18.61-83.63a62.85,62.85,0,0,1,8.24-11.68q7.74-6.87,16-13.13,10.85-8.33,22.48-15.58,66.6-41.73,143.66-43.6a281.78,281.78,0,0,1,69.78,7,302.48,302.48,0,0,1,74.56,27.73c1.53.71,3.11,1.56,4.68,2.41q71.1,38.49,112.09,104.18,5.57,8.77,10.31,17.79,30.87,58.47,32.27,126.62a286.37,286.37,0,0,1-5,59h0A64.19,64.19,0,0,1,1553.72,719.23Z"/></g></svg>