<svg xmlns="http://www.w3.org/2000/svg" viewBox="0 0 82.09 145.36"><defs><style>.cls-1{fill:#c5b4e2;}.cls-2{opacity:0.1;}.cls-2,.cls-4,.cls-5,.cls-6{isolation:isolate;}.cls-3{fill:#e27f3b;}.cls-4{opacity:0.15;}.cls-5{opacity:0.07;}.cls-6{opacity:0.03;}.cls-7{fill:#ff595a;}.cls-8{fill:#ffe800;}.cls-9{fill:#63cfe3;}.cls-10{font-size:27.61px;fill:#fff;font-family:Quicksand-Bold, Quicksand;font-weight:700;}.cls-11{letter-spacing:-0.01em;}</style></defs><title>Recurso 8</title><g id="Capa_2" data-name="Capa 2"><g id="Capa_1-2" data-name="Capa 1"><path class="cls-1" d="M64.89,61.7s-5.36-11-15.51-9.88.7,11.57.7,11.57S62.49,64.38,64.89,61.7Z"/><path class="cls-2" d="M64.89,61.7s-5.36-11-15.51-9.88.7,11.57.7,11.57S62.49,64.38,64.89,61.7Z"/><path class="cls-1" d="M30.48,59.86a3.65,3.65,0,0,1,0-.39C30.69,57.7,32.13,50.61,43.6,49c0,0,8.88-1.69,10.29-4.65v9s-1.83,6.35-11,8.46S30.48,59.86,30.48,59.86Z"/><path class="cls-3" d="M3.83,87.36s-6.64,4.09-2,12.13,78.69,0,78.69,0,4.8-9.87-3.8-13.4S3.83,87.36,3.83,87.36Z"/><path class="cls-2" d="M76,77.8a5.58,5.58,0,0,0-2.35-4.75c.27-2.18.71-10.84-9.08-11.81-1.15-2-4.74-7.36-10.6-8.84V44.63c-1.41,3-10.29,4.65-10.29,4.65-10.18,1.43-12.46,7.17-13,9.68a6.92,6.92,0,0,0-3.11.62c-2.13,1.33-17.36,5.31-16.17,15.86l-.61.21s-12,9.59-3.3,14.88h0s4,7.69,15.71,1.77l0,0c4.41,1.27,16.22,3.92,23.24-1.39l.5-.38c2.79,1.66,9.39,4.7,15,.38l0,0c2.18,2.05,6.61,4.66,11.94-.67C80.37,83.8,79.13,79.21,76,77.8Z"/><path class="cls-1" d="M60.52,88.91s5.78,8.6,13.4,1,4.37-12.69,0-12.83S60.52,88.91,60.52,88.91Z"/><path class="cls-4" d="M60.52,88.91s5.78,8.6,13.4,1,4.37-12.69,0-12.83S60.52,88.91,60.52,88.91Z"/><path class="cls-1" d="M75.89,78.2s1.41-12-16.77-2.82-13.54,14-13.54,14,9,6.91,16.36,1.27S73.77,83.27,75.89,78.2Z"/><path class="cls-2" d="M75.89,78.2s1.41-12-16.77-2.82-13.54,14-13.54,14,9,6.91,16.36,1.27S73.77,83.27,75.89,78.2Z"/><path class="cls-1" d="M61.93,74.53s-6.91-4.79-17.49,0-23,16.92-23,16.92,16.22,5.79,25-.84S61.51,79,61.93,74.53Z"/><path class="cls-5" d="M61.93,74.53s-6.91-4.79-17.49,0-23,16.92-23,16.92,16.22,5.79,25-.84S61.51,79,61.93,74.53Z"/><path class="cls-1" d="M47.69,73.82s-14.11-2-20.59,2S7.43,90.25,7.43,90.25s4,7.69,15.71,1.77C23.15,92,47.4,76.93,47.69,73.82Z"/><path class="cls-6" d="M47.69,73.82s-14.11-2-20.59,2S7.43,90.25,7.43,90.25s4,7.69,15.71,1.77C23.15,92,47.4,76.93,47.69,73.82Z"/><path class="cls-1" d="M10.74,75.38s-12.56,10-2.68,15.23c0,0,20.87-13.68,21.29-15.23C29.35,75.38,19.62,72,10.74,75.38Z"/><path class="cls-1" d="M38.1,59.3s-8.32-1.41-10.58,0S8.34,65.08,11.72,77.07l5.07-1.83S26.53,63,38.1,59.3Z"/><path class="cls-2" d="M38.1,59.3s-8.32-1.41-10.58,0S8.34,65.08,11.72,77.07l5.07-1.83S26.53,63,38.1,59.3Z"/><path class="cls-1" d="M51.92,61.13s-5.93-5.5-19-.42S15.39,75,15.39,75l19.67,1.48S46.13,60.57,51.92,61.13Z"/><path class="cls-5" d="M51.92,61.13s-5.93-5.5-19-.42S15.39,75,15.39,75l19.67,1.48S46.13,60.57,51.92,61.13Z"/><path class="cls-1" d="M61.08,61.84S51.63,58.73,44.31,63s-10,12.55-10,12.55L46,75S55.16,60.57,61.08,61.84Z"/><path class="cls-6" d="M61.08,61.84S51.63,58.73,44.31,63s-10,12.55-10,12.55L46,75S55.16,60.57,61.08,61.84Z"/><path class="cls-1" d="M73.49,73.26s3.25-16.5-18.19-11.42c0,0-12.18,10.72-8.77,13.68S73.49,73.26,73.49,73.26Z"/><path class="cls-2" d="M.05,97.56l11.48,38.27a1.28,1.28,0,0,0,.47.65c3.21,2.24,27.86,18.14,58.05,0a1.21,1.21,0,0,0,.54-.71L82,97.48a1.24,1.24,0,0,0-1.49-1.55l-5,1.24a1.14,1.14,0,0,1-.52,0l-4.67-.87a1.26,1.26,0,0,0-.81.12L64,99.4a1.28,1.28,0,0,1-.88.11L57.2,98a1.25,1.25,0,0,0-.69,0l-6.92,2.27a1.25,1.25,0,0,1-1-.08L44.05,97.9a1.23,1.23,0,0,0-.94-.08l-5.92,1.89a1.41,1.41,0,0,1-.46.05l-5.7-.4a1.09,1.09,0,0,1-.25,0L26.26,98a1.18,1.18,0,0,0-.59,0l-6.26,1.28a1.38,1.38,0,0,1-.7-.06l-6.1-2.42a1.32,1.32,0,0,0-.68-.07l-4.85.87a1.18,1.18,0,0,1-.59,0L1.6,96a1.24,1.24,0,0,0-1.55.82A1.23,1.23,0,0,0,.05,97.56Z"/><path class="cls-7" d="M.05,97.84l11.48,38.27a1.28,1.28,0,0,0,.47.65c3.21,2.24,27.86,18.15,58.05,0a1.22,1.22,0,0,0,.54-.7L82,97.76a1.24,1.24,0,0,0-1.49-1.55l-5,1.25a1.35,1.35,0,0,1-.53,0l-4.67-.87a1.23,1.23,0,0,0-.8.12l-5.55,3a1.26,1.26,0,0,1-.87.11l-6-1.49a1.24,1.24,0,0,0-.69,0l-6.93,2.27a1.26,1.26,0,0,1-1-.08l-4.58-2.35a1.23,1.23,0,0,0-.94-.08L37.2,100a1.22,1.22,0,0,1-.46.06L31,99.64a1.11,1.11,0,0,1-.25,0L26.26,98.3a1.3,1.3,0,0,0-.59,0l-6.26,1.28a1.28,1.28,0,0,1-.7-.06l-6.1-2.42a1.32,1.32,0,0,0-.68-.07l-4.85.87a1.18,1.18,0,0,1-.59,0L1.6,96.31a1.25,1.25,0,0,0-1.55.82A1.23,1.23,0,0,0,.05,97.84Z"/><polygon class="cls-8" points="12.64 84.2 11.44 83.78 10.77 82.7 13.76 78.96 14.96 79.38 15.64 80.45 12.64 84.2"/><polygon class="cls-9" points="69.48 90.55 68.28 90.13 67.61 89.05 70.6 85.31 71.8 85.72 72.47 86.8 69.48 90.55"/><polygon class="cls-9" points="44.52 70.1 43.32 69.68 42.64 68.6 45.63 64.86 46.84 65.27 47.51 66.35 44.52 70.1"/><polygon class="cls-7" points="51.25 83.88 50.09 84.39 48.87 84.06 48.49 79.28 49.65 78.77 50.88 79.1 51.25 83.88"/><polygon class="cls-8" points="31.69 72.14 30.89 73.13 29.65 73.39 27.15 69.3 27.95 68.31 29.2 68.05 31.69 72.14"/><polygon class="cls-9" points="30.29 83.7 29.48 84.69 28.24 84.95 25.74 80.86 26.54 79.88 27.78 79.61 30.29 83.7"/><polygon class="cls-8" points="64.78 84.83 63.85 85.71 62.59 85.81 60.63 81.43 61.55 80.56 62.82 80.45 64.78 84.83"/><polygon class="cls-8" points="58.49 69.83 58.8 68.59 59.82 67.83 63.81 70.48 63.5 71.72 62.49 72.48 58.49 69.83"/><polygon class="cls-7" points="16.03 71.65 14.83 71.23 14.15 70.15 17.15 66.41 18.35 66.82 19.02 67.9 16.03 71.65"/><polygon class="cls-7" points="31.14 64.61 30.85 63.37 31.4 62.22 36.16 62.73 36.46 63.97 35.91 65.12 31.14 64.61"/><polygon class="cls-9" points="54.25 57.58 54.48 56.33 55.45 55.5 59.6 57.92 59.36 59.16 58.39 59.99 54.25 57.58"/><polygon class="cls-8" points="45.01 51.28 46.25 50.99 47.39 51.55 46.84 56.32 45.6 56.6 44.45 56.04 45.01 51.28"/><polygon class="cls-8" points="36.5 88.86 36.21 87.63 36.75 86.48 41.52 86.99 41.82 88.22 41.27 89.37 36.5 88.86"/><polygon class="cls-7" points="18.87 89.77 18.12 88.74 18.18 87.47 22.77 86.08 23.52 87.11 23.46 88.38 18.87 89.77"/><polygon class="cls-7" points="68.23 81.27 67.18 80.55 66.83 79.33 70.72 76.53 71.76 77.25 72.12 78.47 68.23 81.27"/><polygon class="cls-7" points="35.23 82.26 34.18 81.53 33.83 80.31 37.72 77.51 38.76 78.24 39.12 79.46 35.23 82.26"/><path class="cls-2" d="M11.94,96.73l-4.85.87a1.18,1.18,0,0,1-.59,0l-.08,0,8.84,41L6.42,97.54,1.61,96a1.24,1.24,0,0,0-1.55.81,1.32,1.32,0,0,0,0,.71l11.48,38.27a1.24,1.24,0,0,0,.48.65,45.41,45.41,0,0,0,8.85,4.67L12.3,96.7A1.46,1.46,0,0,0,11.94,96.73Z"/><path class="cls-2" d="M80.56,95.94l-5,1.24a1.18,1.18,0,0,1-.53,0l-4.67-.87a1.55,1.55,0,0,0-.43,0l-8.17,44.37L70,96.33a1.09,1.09,0,0,0-.36.12l-5.55,3a1.25,1.25,0,0,1-.83.12l-5.82,42.81A61,61,0,0,0,67,138.21l8.91-41.12L67,138.19c1-.53,2-1.11,3-1.72a1.21,1.21,0,0,0,.54-.71L82.05,97.47a1.25,1.25,0,0,0-.86-1.53A1.22,1.22,0,0,0,80.56,95.94Z"/><path class="cls-7" d="M63.16,99.52,57.2,98a1.39,1.39,0,0,0-.35,0L52.3,143.76a52.93,52.93,0,0,0,5.1-1.42l5.82-42.81Z"/><rect class="cls-1" x="10.77" y="97.35" width="0.14" height="41.88" transform="translate(-24.71 4.95) rotate(-12.18)"/><rect class="cls-1" x="22.11" y="99.4" width="0.14" height="43.82" transform="translate(-17.06 4.4) rotate(-8.19)"/><rect class="cls-1" x="16.49" y="96.55" width="0.14" height="45.3" transform="translate(-22.24 5.28) rotate(-10.9)"/><rect class="cls-1" x="27.93" y="98.13" width="0.14" height="46.19" transform="translate(-10.56 2.94) rotate(-5.05)"/><rect class="cls-1" x="34.24" y="99.82" width="0.14" height="45.22" transform="translate(-3.57 1.06) rotate(-1.68)"/><rect class="cls-1" x="41.11" y="98.76" width="0.14" height="46.59" transform="translate(-0.79 0.27) rotate(-0.37)"/><rect class="cls-1" x="26.1" y="122.78" width="44.21" height="0.14" transform="translate(-76.52 165.97) rotate(-87.65)"/><rect class="cls-1" x="31.44" y="121.15" width="46.24" height="0.14" transform="translate(-71.5 163.43) rotate(-84.28)"/><rect class="cls-1" x="37.72" y="120.38" width="43.54" height="0.14" transform="translate(-67.68 163.76) rotate(-82.52)"/><rect class="cls-1" x="43.27" y="118.67" width="45.19" height="0.14" transform="translate(-62.85 161.98) rotate(-79.55)"/><rect class="cls-1" x="50.43" y="117.86" width="42.07" height="0.14" transform="translate(-58.9 162.88) rotate(-77.81)"/><text class="cls-10" transform="translate(2.33 23.47)">g<tspan class="cls-11" x="17.48" y="0">r</tspan><tspan x="29.13" y="0">atis</tspan></text></g></g></svg>