<svg xmlns="http://www.w3.org/2000/svg" xmlns:xlink="http://www.w3.org/1999/xlink" viewBox="0 0 955.87 488.55"><defs><style>.cls-1{fill:none;}.cls-2{fill:#c5b4e2;}.cls-3{clip-path:url(#clip-path);}.cls-4{fill:#ffe800;}.cls-5{fill:#ff595a;}.cls-6{fill:#773dbd;}.cls-7{fill:#63cfe3;}</style><clipPath id="clip-path"><rect class="cls-1" x="341.71" y="-110.6" width="300.93" height="642" rx="67.15" transform="translate(281.77 702.58) rotate(-90)"/></clipPath></defs><title>Recurso 3</title><g id="Capa_2" data-name="Capa 2"><g id="Capa_1-2" data-name="Capa 1"><rect class="cls-2" x="341.71" y="-110.6" width="300.93" height="642" rx="67.15" transform="translate(281.77 702.58) rotate(-90)"/><g class="cls-3"><path class="cls-4" d="M594.73,292.89a26,26,0,0,1-14.94,48.42,25.08,25.08,0,0,1-3-.4l-.23-.06-1.42-.34-.15,0-1.57-.33h0a72.68,72.68,0,0,0-13.81-1.44,65,65,0,0,0-33.9,8.64,61.64,61.64,0,0,0-22.79,23.26,12.85,12.85,0,0,0-.88,1.46,62.45,62.45,0,0,0-7.77,33.37,64.92,64.92,0,0,0,11.3,33.1q1.79,2.68,3.82,5.21,1.61,2,3.38,3.94A26,26,0,0,1,479,485.37a26.22,26.22,0,0,1-4.68-3.3q-2.74-3.1-5.25-6.39c-2.23-2.9-4.3-5.9-6.25-9a111.86,111.86,0,0,1-17.46-57.54,113.35,113.35,0,0,1,2.81-27.95,121.63,121.63,0,0,1,11.11-29.86c.29-.61.63-1.24,1-1.87A118.31,118.31,0,0,1,502,304.57c2.34-1.49,4.71-2.86,7.12-4.13a112,112,0,0,1,50.71-12.92,114.61,114.61,0,0,1,23.65,2h0A25.68,25.68,0,0,1,594.73,292.89Z"/><path class="cls-5" d="M955.69,156.38a24.77,24.77,0,0,1-1.2,11.14h0c-.59,1.42-1.23,2.8-1.9,4.18A82.14,82.14,0,0,1,943,187Q919.78,216.09,871,222t-78-16.86A81.87,81.87,0,0,1,775.85,187l0,0c-.78-1.12-1.54-2.28-2.26-3.46a1.19,1.19,0,0,1-.12-.22,101.12,101.12,0,0,1-11.72-27.89v0c-.66-2.51-1.25-5.08-1.79-7.72v0q-1.06-5.4-1.77-11.16l-4.54-37.4a26.62,26.62,0,0,1-.18-4.43q-2.91-23-13.92-35.08a29.61,29.61,0,0,0-16.13-8.87l0-.07a25.78,25.78,0,0,1-19-21.57C702.67,14.9,713.21,2,727.93.21a27.38,27.38,0,0,1,6.77,0h0q30.69.62,46.46,19.31,20,23.71,25.49,69.22l5.55,45.69c.1.82.16,1.63.18,2.46a64.31,64.31,0,0,0,6.26,18.62l0,0a38.58,38.58,0,0,0,3.12,5l0,0a35.59,35.59,0,0,0,6.14,6.56q13.44,11.1,37.39,8.16,24.39-3,34.79-16.92a35.84,35.84,0,0,0,2.78-4.39h0a40.14,40.14,0,0,0,2.89-7,26.6,26.6,0,0,1,5.55-6.53A27.48,27.48,0,0,1,925.93,134a26.88,26.88,0,0,1,26.64,13A25,25,0,0,1,955.69,156.38Z"/><path class="cls-6" d="M179.29,260.3a108.14,108.14,0,0,1,41.9,41.89q14.88,26.6,14.88,58.49,0,32.32-14.88,58.7a108.56,108.56,0,0,1-41.9,41.68q-27,15.31-61,15.32t-61-15.32A110.14,110.14,0,0,1,15.1,419.38Q0,393,0,360.68a116.45,116.45,0,0,1,15.1-58.49A109.7,109.7,0,0,1,57.21,260.3q27-15.31,61-15.32T179.29,260.3ZM81,304.75a64.24,64.24,0,0,0-25.31,23.39,63.75,63.75,0,0,0,0,65.08A64.17,64.17,0,0,0,81,416.61q16.38,8.73,37.22,8.72t37-8.72a64.31,64.31,0,0,0,25.1-23.39,63.75,63.75,0,0,0,0-65.08,64.39,64.39,0,0,0-25.1-23.39q-16.16-8.72-37-8.72T81,304.75Z"/><path class="cls-7" d="M302.78,78.05a26.65,26.65,0,0,1,2.47,2.2,26,26,0,0,1-31.59,40.68c-2.07-1.59-4.12-3.28-6.18-5.05l0,0q-4.18-3.64-8.3-7.79L232.41,81.13a27.66,27.66,0,0,1-2.9-3.4c-7.1-7.08-16.18-12.19-19-22.43A26,26,0,0,1,252.6,28.83l.12-.15q6.91,5.88,13.94,13l32.68,32.89c.59.59,1.14,1.2,1.67,1.84,1.13,1,2.26,2,3.39,2.85L302.64,78Z"/></g></g></g></svg>