<svg xmlns="http://www.w3.org/2000/svg" viewBox="0 0 235.34 51.58"><defs><style>.cls-1{fill:#773dbd;}</style></defs><title>Recurso 5</title><g id="Capa_2" data-name="Capa 2"><g id="Capa_1-2" data-name="Capa 1"><path class="cls-1" d="M184.62,1.35V16.6c.55-.1,1.11.12,1.79,0V.09h9.91V8.26H188.4V16.6h3.81V1.35h5.93V9.61c-.58.06-1.07-.06-1.65,0V26.23h1.71V35h-3.61v16.5h-2.38V43.23h-1.92v8.23h-5.62V43.23H180.3v8.23h-1.78V43.23h-1.9v8.23h-9.85V.09h9.8V8.28h-1.86c0,1.56,0,2.92,0,4.28s.12,4,.12,4h1.73V1.35h-1.86V16.6a3.79,3.79,0,0,0-1.86,0V1.35c-.58,0-1.17,0-1.74,0V9.61h1.74V1.35c.62-.05,1.24,0,1.86,0V26.23c-.59.05-1.18,0-1.74,0v17h1.74v-17c.62-.05,1.24,0,1.91,0,0,2.72,0,8.73,0,8.73l3.47,0V9.61h-1.71c0,5.54,0,11.18,0,16.62h-1.8c-.05-8.26-.05-16.62-.05-24.88h8.05V9.61h1.9v8.3h3.72s0,5.59,0,8.32h1.94V17.91h-2c0-2.7,0-8.3,0-8.3h-1.9V1.35Zm2,24.88v17h1.65v-17Zm-18-9.63V1.35c.52.25,1-.37,1.76,0,0-3.13,0,15.25,0,15.25a.47.47,0,0,1-.58,0C169.43,16.85,168.61,16.6,168.61,16.6Zm1.66,26.63V35l-1.67.13v8.11Z"/><path class="cls-1" d="M107.77,43.23h-3.69c0,2.69,0,5.44,0,8.23H99.86V.09h5.92v8.2c-.5.06-1.09-.06-1.7,0V16.6h3.69V8.29h1.87V16.6h2V8.29h1.93V.09h2.11v8.2h2V.09c.65,0,1.14,0,1.82,0v8.2h1.77V16.6h2.21V8.29h2.18V.09c1.89-.25,3.63.12,5.53,0v8.2h-1.68V1.35h1.72V9.61h-3.63V35H125.7v8.27h3.69V35c.66,0,1.22,0,1.86,0v16.5h-9.94V43.23h-1.77s0-2.67,0-4,0-4.25,0-4.25h-1.82V26.23h1.82V35h4V26.23h-2.21V17.9h-3.59c0-5.36,0-11.2,0-16.55,0-.09-.06.07,0,0s-.08.06,0,0h1.82V9.61h1.77s0-2.94,0-4.29,0-4,0-4h-1.77c0-2.71,0,15.25,0,15.25h-3.85V1.35h-2.11V9.61h-1.93V1.35h-2V9.61h-5.56v8.22l-1.8.11v8.29h1.8V35h3.69ZM123.52,9.61V26.23h2.18V9.61h-2.18ZM104.08,1.35V16.6h-1.8V1.35ZM125.7,16.6V1.35h1.94V16.6Z"/><path class="cls-1" d="M0,51.46V.09H15.25V51.46Z"/><path class="cls-1" d="M213.64,51.46H200.22V.09c4.36-.2,8.84.09,13.42,0Z"/><path class="cls-1" d="M86.09,35V9.61H84.25V26.23H82.48V18l-4-.06c-1.32,0-2.65,0-4.07,0V9.61a7.86,7.86,0,0,0,1.68,0V1.35a3.36,3.36,0,0,0-1.77,0V16.6H70.6V8.29h1.85c0-1.32,0-2.67,0-4V.09h1.79v8.2h1.9V.09h4.26v8.2H82.3V16.6c.65.11,1.22-.1,1.89,0V1.35H86V.09h6.22v8.2h5.52V16.6H96.1V1.35h1.71V9.61H92.44v7H90.55v1.3h3.6v8.33h-3.7V35ZM80.56,9.61h1.81V1.35H80.56Zm-2,7V8.29c-.53-.25-1,.31-1.66,0V16.6Z"/><path class="cls-1" d="M149.32,9.61h-2.14v8.22l-2.22.08v8.32h-3.73V18h-1.86v8.19h1.86c0,2.95,0,5.78,0,8.73H137.5v8.27h-1.77v8.23h-2.4V.09h2.4v8.2h3.64V.09h1.86V16.6H143V8.29H145V.09h4.36c0,1.22,0,2.6,0,3.94s0,4.26,0,4.26h1.84V16.6c-.52.08-1.07-.12-1.84,0Zm-11.82,0h9.68v7H145V1.35c-1.33,0-2.51,0-3.73,0s-2.54,0-3.73,0c0,2.88.08,5.51,0,8.26h-1.77v8.22h1.77C137.5,15.06,137.43,12.42,137.5,9.61Zm0,16.62h-1.77V35h1.77Z"/><path class="cls-1" d="M43.33,17.91V35a16.17,16.17,0,0,1,1.76,0v16.5H33.51V.09C35,0,36.6.1,38.21.09s3.27,0,5.12,0v8.2H41.47c0,1.56-.08,8.31-.08,8.31h1.94V1.35H41.47c0,5.48,0,16.56,0,16.56ZM37,1.35V16.6H35.16l.07-15.25h1.9V17.91H39V1.35h1.74V16.6H39V1.35ZM39,35h1.86l0-8.73H39Z"/><path class="cls-1" d="M56.93,43.23c0,2.65,0,8.23,0,8.23H52.73V35H49v16.5h-2V26.23h1.86V17.91H57v8.32h1.67V9.61h-3.6V1.35h9.76L65,9.61h-4.2v8.21l1.6.17v8.24h2.51V35H62.57v16.5H60.89s-.09.06-.09,0c0-2.62,0-5.4,0-8.23H56.93c0-2.7,0-8.27,0-8.27H55.11l.14,8.27ZM55,35V26.23H53.19L53.42,35Z"/><path class="cls-1" d="M162.9,16.6V1.35h-1.85V16.6h-1.79V1.35h1.79c0,2.45,0,8.26,0,8.26h-1.79v8.28h5.42v8.34h-7.94V35h2.52v8.27h1.79V35h1.85s0-.07,0,0c0,2.63,0,5.52,0,8.27.69,0,1.15,0,1.78,0v8.23h-7.94V43.23H153V35h1.85V17.83l-1.85.08V9.61h3.71V1.35h-1.86V16.6H153V8.29h3.71V.09h4.31V16.6Z"/><path class="cls-1" d="M70.6,16.6V1.35c-.54.09-1.11-.12-1.77,0V35h5.44v8.27h2.44v8.23H72.48V43.23H68.84v8.23H67V.09H70.6v8.2H68.74c0,1.56,0,2.91,0,4.27s.13,4,.13,4Z"/><path class="cls-1" d="M48.91,8.29V16.6h6.2V1.35H50.7V9.61c-.67.06-1.16-.06-1.79,0v8.3H47.05v8.32H45.33s-.14-6.76-.14-8.32H43.33V1.35a19.72,19.72,0,0,1,3.72,0V8.29Z"/><rect class="cls-1" x="17.4" y="0.09" width="2.29" height="51.37"/><path class="cls-1" d="M215.71.09H218V51.46c-.63,0-1.39-.06-2.27,0Z"/><path class="cls-1" d="M227.47.09h2.3V51.46c-.66,0-1.43,0-2.3,0Z"/><path class="cls-1" d="M117.72,43.23h-6.07V35h-2v-17h3.94V9.61h2.11v8.3h2v8.32h-6.07c0,1.65,0,3.05,0,4.51s0,4.22,0,4.22h6.07Z"/><path class="cls-1" d="M23.39,51.46H21.75V.09h1.64Z"/><path class="cls-1" d="M25.46.09h1.66V51.46H25.46Z"/><path class="cls-1" d="M223.77.09h1.65V51.46h-1.65Z"/><path class="cls-1" d="M235.34,51.46h-1.66V.09h1.66Z"/><path class="cls-1" d="M62.43,8.29H58.9V16.6c-.66,0-1.22,0-1.9,0V8.29H52.72V.09h9.71Z"/><path class="cls-1" d="M94.15,35v16.5a18.54,18.54,0,0,1-3.87,0c-1.33,0-2.65,0-4.19,0V43.23h6.19s0-5.79,0-8.27Z"/><path class="cls-1" d="M153,35h-3.71V26.23c.53-.08,1.12.11,1.84,0V17.91H153Z"/><path class="cls-1" d="M80.51,35h1.81v8.27h1.91v8.23H80.51Z"/><path class="cls-1" d="M180.39,8.28h1.75V.09h2.34v8.1l-1.69.17V16.6h-2.4Z"/><rect class="cls-1" x="76.24" y="26.23" width="4.17" height="8.73"/><path class="cls-1" d="M70.7,9.61h1.65V26.23H70.7Z"/><path class="cls-1" d="M145,43.23h2.22v8.23c-.67,0-1.36,0-2.22,0Z"/><path class="cls-1" d="M94.15,26.23h1.74L96,35H94.15Z"/><path class="cls-1" d="M49,8.29V.09h1.66v8.2Z"/><path class="cls-1" d="M180.28,8.28h-1.85V.09h1.85Z"/><path class="cls-1" d="M43.33,8.29h1.86c0,1.36,0,8.32,0,8.32H43.33Z"/><path class="cls-1" d="M151.16,9.61V1.35H153V9.61Z"/><path class="cls-1" d="M178.43,8.28V16.6h-1.86V8.28Z"/><path class="cls-1" d="M84.23,43.23V35h1.86v8.27Z"/><path class="cls-1" d="M151.16,17.91h-1.84s0-2.8,0-4.2,0-4.1,0-4.1h1.84Z"/><path class="cls-1" d="M45.19,8.29V.09h1.86v8.2Z"/><path class="cls-1" d="M162.9,16.6V8.29h1.78V16.6Z"/><path class="cls-1" d="M107.77,43.23h1.87v8.23h-1.87Z"/><path class="cls-1" d="M119.54,43.23v8.23h-1.82V43.23Z"/><path class="cls-1" d="M137.5,43.23h1.87s0,2.68,0,4,0,2.76,0,4.24H137.5Z"/><path class="cls-1" d="M141.23,35H143v8.27h-1.81Z"/><path class="cls-1" d="M176.57,8.28V16.6h-1.73a21.76,21.76,0,0,1-.12-4c0-1.36,0-2.72,0-4.28Z"/><path class="cls-1" d="M137.5,9.61v8.22h-1.77V9.61Z"/><path class="cls-1" d="M39,1.35V17.91H37.13V1.35Z"/><path class="cls-1" d="M48.91,17.91V9.61c.63-.06,1.12.06,1.79,0V1.35h4.41V9.61h3.6V26.23H57V17.91Z"/><path class="cls-1" d="M47.05,26.23V17.91h1.86v8.32Z"/><path class="cls-1" d="M151.16,17.91V9.61H153v8.3Z"/></g></g></svg>