<svg xmlns="http://www.w3.org/2000/svg" viewBox="0 0 198.69 244.45"><defs><style>.cls-1{fill:#c5b4e2;}.cls-2{opacity:0.1;}.cls-2,.cls-4,.cls-5,.cls-6{isolation:isolate;}.cls-3{fill:#e27f3b;}.cls-4{opacity:0.15;}.cls-5{opacity:0.07;}.cls-6{opacity:0.03;}.cls-7{fill:#ff595a;}.cls-8{fill:#ffe800;}.cls-9{fill:#63cfe3;}</style></defs><title>Recurso 4</title><g id="Capa_2" data-name="Capa 2"><g id="Capa_1-2" data-name="Capa 1"><path class="cls-1" d="M157.05,42s-13-26.62-37.54-23.89,1.7,28,1.7,28S151.25,48.45,157.05,42Z"/><path class="cls-2" d="M157.05,42s-13-26.62-37.54-23.89,1.7,28,1.7,28S151.25,48.45,157.05,42Z"/><path class="cls-1" d="M73.77,37.53a9.37,9.37,0,0,1,.07-1c.43-4.26,3.93-21.44,31.67-25.3,0,0,21.51-4.1,24.92-11.27V21.85S126,37.21,103.81,42.33,73.77,37.53,73.77,37.53Z"/><path class="cls-3" d="M9.26,104.09S-6.8,114,4.48,133.44s190.46,0,190.46,0,11.6-23.89-9.21-32.43S9.26,104.09,9.26,104.09Z"/><path class="cls-2" d="M183.91,80.94c0-2.79-.78-8.43-5.69-11.5.65-5.27,1.72-26.24-22-28.58-2.79-4.8-11.48-17.81-25.65-21.38V.66c-3.41,7.17-24.92,11.27-24.92,11.27C81.06,15.37,75.54,29.28,74.3,35.35c-3.16.1-6,.53-7.53,1.5-5.16,3.22-42,12.85-39.14,38.37l-1.48.53s-29,23.2-8,36h0s9.69,18.61,38,4.27l.09-.06c10.67,3.06,39.26,9.49,56.23-3.36l1.22-.92c6.75,4,22.74,11.38,36.33.92l.11-.09c5.27,5,16,11.28,28.9-1.62C194.51,95.48,191.51,84.35,183.91,80.94Z"/><path class="cls-1" d="M146.47,107.84s14,20.82,32.43,2.39,10.58-30.72,0-31.06S146.47,107.84,146.47,107.84Z"/><path class="cls-4" d="M146.47,107.84s14,20.82,32.43,2.39,10.58-30.72,0-31.06S146.47,107.84,146.47,107.84Z"/><path class="cls-1" d="M183.68,81.9s3.41-29-40.59-6.82-32.77,33.79-32.77,33.79,21.84,16.73,39.59,3.07S178.56,94.19,183.68,81.9Z"/><path class="cls-2" d="M183.68,81.9s3.41-29-40.59-6.82-32.77,33.79-32.77,33.79,21.84,16.73,39.59,3.07S178.56,94.19,183.68,81.9Z"/><path class="cls-1" d="M149.89,73s-16.73-11.6-42.32,0-55.64,41-55.64,41,39.25,14,60.41-2S148.87,84,149.89,73Z"/><path class="cls-5" d="M149.89,73s-16.73-11.6-42.32,0-55.64,41-55.64,41,39.25,14,60.41-2S148.87,84,149.89,73Z"/><path class="cls-1" d="M115.42,71.32S81.28,66.55,65.58,76.1s-47.6,35-47.6,35,9.69,18.6,38,4.26C56,115.35,114.73,78.83,115.42,71.32Z"/><path class="cls-6" d="M115.42,71.32S81.28,66.55,65.58,76.1s-47.6,35-47.6,35,9.69,18.6,38,4.26C56,115.35,114.73,78.83,115.42,71.32Z"/><path class="cls-1" d="M26,75.08S-4.39,99.33,19.5,111.94c0,0,50.51-33.1,51.54-36.86C71,75.08,47.5,66.88,26,75.08Z"/><path class="cls-1" d="M92.2,36.17s-20.14-3.42-25.6,0-46.42,14-38.23,43l12.27-4.41S64.21,45,92.2,36.17Z"/><path class="cls-2" d="M92.2,36.17s-20.14-3.42-25.6,0-46.42,14-38.23,43l12.27-4.41S64.21,45,92.2,36.17Z"/><path class="cls-1" d="M125.65,40.6s-14.33-13.31-46.08-1S37.25,74.05,37.25,74.05l47.61,3.59S111.66,39.24,125.65,40.6Z"/><path class="cls-5" d="M125.65,40.6s-14.33-13.31-46.08-1S37.25,74.05,37.25,74.05l47.61,3.59S111.66,39.24,125.65,40.6Z"/><path class="cls-1" d="M147.84,42.31S125,34.8,107.24,45,83,75.41,83,75.41l28.33-1.36S133.5,39.24,147.84,42.31Z"/><path class="cls-6" d="M147.84,42.31S125,34.8,107.24,45,83,75.41,83,75.41l28.33-1.36S133.5,39.24,147.84,42.31Z"/><path class="cls-1" d="M177.88,70s7.85-39.94-44-27.65c0,0-29.49,25.94-21.23,33.11S177.88,70,177.88,70Z"/><path class="cls-2" d="M.12,128.78l27.79,92.61A3,3,0,0,0,29.05,223c7.76,5.42,67.42,43.91,140.49,0a3,3,0,0,0,1.32-1.71l27.69-92.68a3,3,0,0,0-2-3.72,3,3,0,0,0-1.58,0l-12,3a2.82,2.82,0,0,1-1.26,0l-11.31-2.1a2.93,2.93,0,0,0-2,.3L155,133.23a3,3,0,0,1-2.11.26l-14.44-3.59a2.93,2.93,0,0,0-1.66.06L120,135.45a3,3,0,0,1-2.29-.18l-11.11-5.69a3,3,0,0,0-2.27-.19L90,134a3.06,3.06,0,0,1-1.12.14l-13.79-1a3,3,0,0,1-.61-.1l-11-3.13a3,3,0,0,0-1.42-.05L47,132.93a3.08,3.08,0,0,1-1.7-.15l-14.76-5.85a3,3,0,0,0-1.63-.16l-11.75,2.11a3.11,3.11,0,0,1-1.42-.09L3.87,125.06a3,3,0,0,0-3.74,2A3.12,3.12,0,0,0,.12,128.78Z"/><path class="cls-7" d="M.12,129.46l27.79,92.61a2.93,2.93,0,0,0,1.14,1.58c7.76,5.42,67.42,43.91,140.49,0a3,3,0,0,0,1.32-1.71l27.69-92.68a3,3,0,0,0-2-3.72,3,3,0,0,0-1.58,0l-12,3a3,3,0,0,1-1.26,0l-11.31-2.11a3,3,0,0,0-2,.3L155,133.92a3,3,0,0,1-2.11.27l-14.44-3.61a2.9,2.9,0,0,0-1.65.06L120,136.13a3.06,3.06,0,0,1-2.3-.18l-11.1-5.7a3,3,0,0,0-2.28-.19L90,134.63a2.83,2.83,0,0,1-1.12.13l-13.8-1a2.44,2.44,0,0,1-.61-.11l-11-3.12a3,3,0,0,0-1.42,0L47,133.61a3.08,3.08,0,0,1-1.7-.15l-14.76-5.85a3,3,0,0,0-1.63-.16l-11.75,2.11a3.11,3.11,0,0,1-1.42-.09L3.87,125.74a3,3,0,0,0-3.74,2A3.12,3.12,0,0,0,.12,129.46Z"/><polygon class="cls-8" points="30.6 96.44 27.7 95.43 26.07 92.82 33.31 83.75 36.22 84.76 37.84 87.37 30.6 96.44"/><polygon class="cls-9" points="168.16 111.8 165.25 110.79 163.63 108.18 170.87 99.11 173.77 100.12 175.4 102.73 168.16 111.8"/><polygon class="cls-9" points="107.75 62.3 104.84 61.3 103.21 58.69 110.45 49.61 113.36 50.63 114.98 53.23 107.75 62.3"/><polygon class="cls-7" points="124.05 95.65 121.24 96.9 118.27 96.11 117.36 84.53 120.17 83.29 123.14 84.08 124.05 95.65"/><polygon class="cls-8" points="76.71 67.25 74.77 69.64 71.76 70.27 65.71 60.37 67.65 57.98 70.66 57.35 76.71 67.25"/><polygon class="cls-9" points="73.3 95.24 71.35 97.63 68.35 98.26 62.3 88.36 64.24 85.97 67.25 85.34 73.3 95.24"/><polygon class="cls-8" points="156.78 97.96 154.55 100.08 151.48 100.33 146.75 89.73 148.98 87.61 152.04 87.37 156.78 97.96"/><polygon class="cls-8" points="141.57 61.65 142.32 58.66 144.78 56.82 154.45 63.24 153.69 66.22 151.24 68.08 141.57 61.65"/><polygon class="cls-7" points="38.79 66.06 35.89 65.05 34.26 62.44 41.5 53.37 44.41 54.38 46.04 56.99 38.79 66.06"/><polygon class="cls-7" points="75.37 49.01 74.66 46.02 75.99 43.24 87.53 44.47 88.24 47.47 86.91 50.25 75.37 49.01"/><polygon class="cls-9" points="131.29 32 131.87 28.97 134.22 26.98 144.24 32.82 143.67 35.84 141.32 37.84 131.29 32"/><polygon class="cls-8" points="108.94 16.75 111.94 16.07 114.7 17.42 113.35 28.95 110.35 29.63 107.59 28.28 108.94 16.75"/><polygon class="cls-8" points="88.34 107.73 87.63 104.73 88.96 101.95 100.5 103.18 101.21 106.18 99.88 108.95 88.34 107.73"/><polygon class="cls-7" points="45.67 109.91 43.85 107.43 43.99 104.36 55.1 100.99 56.92 103.48 56.78 106.55 45.67 109.91"/><polygon class="cls-7" points="165.13 89.35 162.6 87.6 161.75 84.64 171.16 77.87 173.69 79.62 174.55 82.57 165.13 89.35"/><polygon class="cls-7" points="85.26 91.74 82.73 89.99 81.87 87.03 91.29 80.25 93.82 82.01 94.68 84.96 85.26 91.74"/><path class="cls-2" d="M28.9,126.77l-11.75,2.11a3.11,3.11,0,0,1-1.42-.09l-.2-.07,21.39,99.11L15.53,128.72,3.89,125.06a3,3,0,0,0-3.76,3.7l27.78,92.61A3,3,0,0,0,29.06,223a111.91,111.91,0,0,0,21.42,11.29L29.76,126.69A3.14,3.14,0,0,0,28.9,126.77Z"/><path class="cls-2" d="M195,124.84l-12,3a3,3,0,0,1-1.26,0l-11.31-2.11a2.7,2.7,0,0,0-1.06,0L149.55,233.16,169.3,125.78a3.08,3.08,0,0,0-.88.31L155,133.25a3.08,3.08,0,0,1-2,.29L138.91,237.16a148.25,148.25,0,0,0,23.28-10l21.55-99.5-21.56,99.47q3.66-2,7.38-4.17a3,3,0,0,0,1.32-1.71l27.69-92.68a3,3,0,0,0-3.6-3.71Z"/><path class="cls-7" d="M152.87,133.5l-14.43-3.6a3.08,3.08,0,0,0-.85-.09l-11,110.79q6.06-1.38,12.35-3.44L153,133.54Z"/><rect class="cls-1" x="26.06" y="128.26" width="0.34" height="101.37" transform="translate(-37.16 9.56) rotate(-12.18)"/><rect class="cls-1" x="53.52" y="133.22" width="0.34" height="106.06" transform="translate(-25.99 9.55) rotate(-8.19)"/><rect class="cls-1" x="39.92" y="126.33" width="0.34" height="109.63" transform="translate(-33.53 10.85) rotate(-10.9)"/><rect class="cls-1" x="67.6" y="130.15" width="0.34" height="111.79" transform="translate(-16.11 6.69) rotate(-5.05)"/><rect class="cls-1" x="82.86" y="134.24" width="0.34" height="109.45" transform="translate(-5.5 2.52) rotate(-1.68)"/><rect class="cls-1" x="99.5" y="131.68" width="0.34" height="112.77" transform="translate(-1.21 0.65) rotate(-0.37)"/><rect class="cls-1" x="63.17" y="189.8" width="106.99" height="0.34" transform="translate(-77.94 298.75) rotate(-87.65)"/><rect class="cls-1" x="76.09" y="185.87" width="111.91" height="0.34" transform="translate(-66.23 298.88) rotate(-84.28)"/><rect class="cls-1" x="91.3" y="184.01" width="105.38" height="0.34" transform="translate(-57.36 302.97) rotate(-82.52)"/><rect class="cls-1" x="104.73" y="179.85" width="109.38" height="0.34" transform="translate(-46.53 304.15) rotate(-79.55)"/><rect class="cls-1" x="122.06" y="177.9" width="101.82" height="0.34" transform="translate(-37.61 309.54) rotate(-77.81)"/></g></g></svg>