<svg xmlns="http://www.w3.org/2000/svg" viewBox="0 0 77.44 145.75"><defs><style>.cls-1{fill:none;stroke:#000;stroke-miterlimit:10;}.cls-1,.cls-3,.cls-4{opacity:0.1;}.cls-1,.cls-3,.cls-4,.cls-9{isolation:isolate;}.cls-2{fill:#63cfe3;}.cls-10,.cls-4,.cls-9{fill:#fff;}.cls-5{fill:#c5b4e2;}.cls-6{fill:#535461;}.cls-7{fill:#dde1eb;}.cls-8{fill:#e8eaf1;}.cls-9{opacity:0.2;}.cls-10{font-size:27.61px;font-family:Quicksand-Bold, Quicksand;font-weight:700;}.cls-11{letter-spacing:-0.01em;}</style></defs><title>Recurso 1</title><g id="Capa_2" data-name="Capa 2"><g id="Capa_1-2" data-name="Capa 1"><path class="cls-1" d="M57.74,138.18s3.85-5.4,3.66-9.25.91-13.25.91-13.25"/><path class="cls-2" d="M68.25,63.26v68.5a14,14,0,0,1-14,14H26.75A17.56,17.56,0,0,1,9.21,128.18V60.8a11.4,11.4,0,0,1,3.3-8,11.64,11.64,0,0,1,2.35-1.84,11.41,11.41,0,0,1,5.81-1.57H54.32A13.93,13.93,0,0,1,68.25,63.26Z"/><path class="cls-3" d="M68.25,83.4v17c-3.86-1.63-8.34-2-10.93,2.82-5.21,9.76-14.25-3.69-14.25-3.69s-3.54-4.63-12.8.72c-6.41,3.7-15.86,2.08-21.07.72v-21c4.52,3.14,12.23,7.6,15.79,4.54,3.17-2.73,9-.45,13.07,1.76A3.36,3.36,0,0,0,42.6,85a4,4,0,0,0,.32-.87c.58-2.71,2-5.15,5.5-3.35C53,83.11,62.63,83.43,68.25,83.4Z"/><path class="cls-3" d="M68.25,82.63v17c-3.86-1.63-8.34-2-10.93,2.82-5.21,9.76-14.25-3.69-14.25-3.69s-3.54-4.63-12.8.72c-6.41,3.71-15.86,2.08-21.07.72V79.3c4.52,3.13,12.23,7.59,15.79,4.53,3.17-2.73,9-.44,13.07,1.76a3.35,3.35,0,0,0,4.54-1.37,3.78,3.78,0,0,0,.32-.87c.58-2.71,2-5.15,5.5-3.35C53,82.34,62.63,82.65,68.25,82.63Z"/><path class="cls-4" d="M15.28,128.18V60.8A11.46,11.46,0,0,1,26.74,49.34H20.67A11.46,11.46,0,0,0,9.21,60.8v67.38a17.56,17.56,0,0,0,17.55,17.56h6.09A17.56,17.56,0,0,1,15.28,128.2Z"/><path class="cls-3" d="M63.44,52.73l0,.38s-8.33,3.3-25.25,3.74-25.64-3.74-25.64-3.74l0-.36a11.64,11.64,0,0,1,2.35-1.84c3.11,1.46,9.7,3.14,23.35,2.79,12.21-.31,18.58-1.79,21.89-3.12A14.39,14.39,0,0,1,63.44,52.73Z"/><ellipse class="cls-5" cx="37.38" cy="49.27" rx="23.52" ry="5.99"/><path class="cls-6" d="M42.94,48s13.41-1.85,10.9,2.65-10.9.93-10.9.93Z"/><path class="cls-3" d="M37.57,45.3C49.39,44.86,59.26,47,61,50.19a2.13,2.13,0,0,0,.21-1c-.14-3.72-10.77-6.34-23.75-5.86S14.1,47.23,14.24,51a2.23,2.23,0,0,0,.29,1C16.07,48.6,25.75,45.74,37.57,45.3Z"/><path class="cls-7" d="M12.19,48.85S13.33,41.36,37,41.91c0,0,22.34-1.47,26.62,6.07L61,51.16s1.34-8-23.83-6.32-22,5.91-22,5.91l-.46.82Z"/><path class="cls-8" d="M40.83,46.79a3.39,3.39,0,0,0-3.64,3.06,3.39,3.39,0,0,0,3.64,3.06,3.38,3.38,0,0,0,3.63-3.06A3.38,3.38,0,0,0,40.83,46.79Zm0,4.84a1.81,1.81,0,1,1,2.11-1.78A2,2,0,0,1,40.83,51.63Z"/><polygon class="cls-3" points="24.51 46.62 24.63 47.39 24.59 47.39 24.46 46.63 24.51 46.62"/><polygon class="cls-3" points="24.61 46.6 24.73 47.37 24.69 47.38 24.56 46.61 24.61 46.6"/><polygon class="cls-3" points="24.82 47.35 24.78 47.36 24.73 47.03 24.66 46.59 24.7 46.59 24.77 47.03 24.82 47.35"/><polygon class="cls-3" points="24.92 47.34 24.88 47.35 24.82 47.02 24.75 46.58 24.8 46.57 24.87 47.01 24.92 47.34"/><polygon class="cls-3" points="25.02 47.32 24.97 47.33 24.92 47 24.85 46.56 24.89 46.55 24.96 47 25.02 47.32"/><polygon class="cls-3" points="24.99 46.54 25.11 47.31 25.07 47.31 24.94 46.55 24.99 46.54"/><polygon class="cls-3" points="25.2 47.29 25.16 47.3 25.11 46.97 25.04 46.53 25.08 46.52 25.15 46.97 25.2 47.29"/><polygon class="cls-3" points="25.3 47.27 25.26 47.28 25.2 46.95 25.13 46.51 25.18 46.51 25.25 46.95 25.3 47.27"/><polygon class="cls-3" points="25.39 47.26 25.36 47.27 25.3 46.94 25.23 46.5 25.27 46.49 25.34 46.93 25.39 47.26"/><polygon class="cls-3" points="25.49 47.24 25.45 47.25 25.39 46.92 25.32 46.48 25.37 46.48 25.44 46.92 25.49 47.24"/><polygon class="cls-3" points="25.46 46.46 25.59 47.23 25.55 47.23 25.42 46.47 25.46 46.46"/><polygon class="cls-3" points="25.68 47.21 25.64 47.22 25.59 46.89 25.51 46.45 25.56 46.44 25.63 46.88 25.68 47.21"/><polygon class="cls-3" points="25.78 47.19 25.73 47.2 25.68 46.88 25.61 46.44 25.65 46.43 25.72 46.87 25.78 47.19"/><polygon class="cls-3" points="25.87 47.18 25.83 47.18 25.78 46.86 25.7 46.42 25.75 46.41 25.82 46.85 25.87 47.18"/><polygon class="cls-3" points="25.85 46.4 25.97 47.16 25.93 47.17 25.8 46.4 25.85 46.4"/><polygon class="cls-3" points="26.06 47.15 26.02 47.15 25.97 46.83 25.89 46.39 25.94 46.38 26.01 46.82 26.06 47.15"/><polygon class="cls-3" points="26.16 47.13 26.12 47.14 26.06 46.81 25.99 46.37 26.04 46.36 26.11 46.8 26.16 47.13"/><polygon class="cls-3" points="26.25 47.12 26.21 47.12 26.16 46.8 26.09 46.35 26.13 46.35 26.2 46.79 26.25 47.12"/><polygon class="cls-3" points="26.35 47.1 26.31 47.1 26.25 46.78 26.18 46.34 26.23 46.33 26.3 46.77 26.35 47.1"/><polygon class="cls-3" points="26.32 46.32 26.44 47.08 26.4 47.09 26.27 46.32 26.32 46.32"/><polygon class="cls-3" points="26.54 47.07 26.5 47.07 26.44 46.75 26.37 46.31 26.42 46.3 26.49 46.74 26.54 47.07"/><polygon class="cls-3" points="26.64 47.05 26.59 47.06 26.54 46.73 26.47 46.29 26.51 46.28 26.58 46.72 26.64 47.05"/><polygon class="cls-3" points="26.73 47.03 26.69 47.04 26.64 46.72 26.56 46.27 26.61 46.27 26.68 46.71 26.73 47.03"/><polygon class="cls-3" points="26.82 47.02 26.78 47.02 26.73 46.7 26.66 46.26 26.7 46.25 26.77 46.69 26.82 47.02"/><polygon class="cls-3" points="26.92 47 26.88 47.01 26.82 46.68 26.75 46.24 26.8 46.23 26.87 46.67 26.92 47"/><polygon class="cls-3" points="27.02 46.99 26.98 46.99 26.92 46.67 26.85 46.23 26.89 46.22 26.96 46.66 27.02 46.99"/><polygon class="cls-3" points="27.11 46.97 27.07 46.98 27.02 46.65 26.94 46.21 26.99 46.2 27.06 46.64 27.11 46.97"/><polygon class="cls-3" points="27.21 46.95 27.17 46.96 27.11 46.63 27.04 46.2 27.09 46.19 27.16 46.63 27.21 46.95"/><path class="cls-8" d="M39.81,47.07S27,39.43,24.41,44.79s11.81,6.53,13.51,6.12A2.71,2.71,0,0,1,39.81,47.07ZM35.64,49.4c-1,.26-9.94-.46-8.34-3.78S36.82,47,36.82,47a1.68,1.68,0,0,0-1.18,2.37Z"/><path class="cls-8" d="M12.53,52.72s8.72,4.18,25.64,3.74,25.25-3.74,25.25-3.74L63.6,48a1.86,1.86,0,0,0-.29.27c-1,1.08-5.62,4.56-25.11,5.05-23.25.6-26-4.72-26-4.72Z"/><path class="cls-9" d="M53.52,43.27s.61.44.17.87Z"/><path class="cls-9" d="M37.92,53.3s.11-.74.7-.56Z"/><text class="cls-10" transform="translate(0 23.47)">g<tspan class="cls-11" x="17.48" y="0">r</tspan><tspan x="29.13" y="0">atis</tspan></text></g></g></svg>