<svg xmlns="http://www.w3.org/2000/svg" xmlns:xlink="http://www.w3.org/1999/xlink" viewBox="0 0 96.35 145.83"><defs><style>.cls-1{opacity:0.5;}.cls-2{fill:url(#Degradado_sin_nombre_4);}.cls-3{fill:#dbe8fc;}.cls-4{fill:url(#Degradado_sin_nombre_4-2);}.cls-5{fill:#ffe800;}.cls-11,.cls-6,.cls-9{fill:#fff;}.cls-7{fill:#fafafa;}.cls-8{opacity:0.05;}.cls-10,.cls-8,.cls-9{isolation:isolate;}.cls-9{opacity:0.1;}.cls-10{opacity:0.03;}.cls-11{font-size:27.61px;font-family:Quicksand-Bold, Quicksand;font-weight:700;}</style><linearGradient id="Degradado_sin_nombre_4" x1="1363.99" y1="1626.99" x2="1363.99" y2="1667.28" gradientTransform="matrix(-0.97, -0.24, 0.24, -0.97, 941.68, 2003.31)" gradientUnits="userSpaceOnUse"><stop offset="0" stop-color="gray" stop-opacity="0.25"/><stop offset="0.54" stop-color="gray" stop-opacity="0.12"/><stop offset="1" stop-color="gray" stop-opacity="0.1"/></linearGradient><linearGradient id="Degradado_sin_nombre_4-2" x1="1322.44" y1="1592.96" x2="1322.44" y2="1687.55" xlink:href="#Degradado_sin_nombre_4"/></defs><title>Recurso 2</title><g id="Capa_2" data-name="Capa 2"><g id="Capa_1-2" data-name="Capa 1"><g class="cls-1"><path class="cls-2" d="M30,60.72l-1.23,4.89-8.84-2.23A8.5,8.5,0,0,0,9.6,69.55h0L6.36,82.35a8.51,8.51,0,0,0,6.17,10.33h0l8.84,2.23L20.16,99.8,6.43,96.34A8.51,8.51,0,0,1,.26,86h0L5.94,63.44a8.51,8.51,0,0,1,10.32-6.19h0Z"/></g><path class="cls-3" d="M28.32,62.49l-1.1,4.37-7-1.77A8.5,8.5,0,0,0,9.86,71.26h0L7.41,81a8.51,8.51,0,0,0,6.17,10.32l7,1.78-1.1,4.37L8.12,94.57A8.51,8.51,0,0,1,1.94,84.24h0L6.59,65.79a8.5,8.5,0,0,1,10.32-6.17h0Z"/><g class="cls-1"><path class="cls-4" d="M20.07,134.87,62.2,145.48A11.38,11.38,0,0,0,76,137.23L96.35,56.54,32.14,40.36,11.81,121a11.4,11.4,0,0,0,8.26,13.83Z"/></g><path class="cls-3" d="M61.22,142.92l-39.07-9.85a11.38,11.38,0,0,1-8.26-13.82L33.12,42.93h0L94.27,58.34h0L75,134.66A11.39,11.39,0,0,1,61.22,142.92Z"/><path class="cls-5" d="M58,137.33l-30.21-7.61a11.39,11.39,0,0,1-8.26-13.83l17-67.58h0l52.3,13.18h0l-17,67.58A11.38,11.38,0,0,1,58,137.33Z"/><path class="cls-6" d="M76.93,65.71a.88.88,0,0,1-.42,1.7A.88.88,0,0,1,76.93,65.71Z"/><path class="cls-7" d="M67.13,84.14a.88.88,0,0,1-.43,1.7A.88.88,0,0,1,67.13,84.14Z"/><path class="cls-7" d="M67.77,98a.88.88,0,0,1-.43,1.7A.88.88,0,0,1,67.77,98Z"/><path class="cls-7" d="M58.75,114.29a.88.88,0,0,1-.42,1.7A.88.88,0,0,1,58.75,114.29Z"/><path class="cls-7" d="M42.86,111.84a.87.87,0,0,1-.43,1.69A.87.87,0,0,1,42.86,111.84Z"/><path class="cls-6" d="M51.51,62.14a.88.88,0,0,1-.43,1.7A.88.88,0,0,1,51.51,62.14Z"/><path class="cls-6" d="M40.4,58.05a.88.88,0,0,1-.43,1.7A.88.88,0,0,1,40.4,58.05Z"/><path class="cls-7" d="M60.54,69.32A1.13,1.13,0,0,1,60,71.51,1.13,1.13,0,0,1,60.54,69.32Z"/><path class="cls-7" d="M43.15,90.23a1.12,1.12,0,0,1-.55,2.18A1.12,1.12,0,0,1,43.15,90.23Z"/><path class="cls-7" d="M59.79,128.62a1.25,1.25,0,0,1-.61,2.42A1.25,1.25,0,0,1,59.79,128.62Z"/><path class="cls-7" d="M75.74,71.47a1.25,1.25,0,0,1-.61,2.43A1.25,1.25,0,0,1,75.74,71.47Z"/><rect class="cls-7" x="53.33" y="33.44" width="15.77" height="54.05" transform="translate(-12.37 105.06) rotate(-75.86)"/><path class="cls-8" d="M52.18,124.48l17-67.58,19.41,4.89-17,67.58a11.38,11.38,0,0,1-13.82,8.26l-19.41-4.89A11.39,11.39,0,0,0,52.18,124.48Z"/><path class="cls-9" d="M39,120.93,56,53.35,36.62,48.46,19.6,116a11.38,11.38,0,0,0,8.26,13.82l19.42,4.9A11.39,11.39,0,0,1,39,120.93Z"/><path class="cls-10" d="M28.75,41.83c1.22-4.83,16.87-5,35-.48s31.79,12.16,30.56,17c-.75,2.94-6.85,4.17-15.61,3.64a5.63,5.63,0,0,1-10,4.77c-1.94,4.34-5.29,7-8.26,6.27-3.25-.82-5-5.47-4.16-10.8a5.78,5.78,0,0,1-5.11,1.5c-2.1-.53-3.59-2.48-4.21-5.08a5.24,5.24,0,0,1-4,.7,5.74,5.74,0,0,1-3.75-3.65C37.93,59.5,34.84,62,32,61.23c-3-.75-4.6-4.8-3.54-9A9.44,9.44,0,0,1,31.68,47C29.46,45.12,28.37,43.34,28.75,41.83Z"/><path class="cls-7" d="M29.31,39.64c1.21-4.82,16.86-5,35-.48s31.79,12.17,30.56,17c-.75,3-6.85,4.17-15.61,3.65a5.63,5.63,0,0,1-10,4.77c-1.94,4.34-5.29,7-8.26,6.27C57.69,70,56,65.36,56.78,60a5.78,5.78,0,0,1-5.11,1.5c-2.1-.53-3.59-2.48-4.21-5.08a5.23,5.23,0,0,1-4,.69,5.7,5.7,0,0,1-3.75-3.64c-1.25,3.81-4.34,6.25-7.17,5.54-3-.76-4.6-4.8-3.54-9a9.38,9.38,0,0,1,3.22-5.21C30,42.94,28.92,41.15,29.31,39.64Z"/><text class="cls-11" transform="translate(27.04 23.47)">50%</text></g></g></svg>